<svg width="606" height="400" xmlns="http://www.w3.org/2000/svg">
 <!-- Created with Method Draw - http://github.com/duopixel/Method-Draw/ -->
 <g>
  <title>background</title>
  <rect fill="#fff" id="canvas_background" height="402" width="608" y="-1" x="-1"/>
  <g display="none" overflow="visible" y="0" x="0" height="100%" width="100%" id="canvasGrid">
   <rect fill="url(#gridpattern)" stroke-width="0" y="0" x="0" height="100%" width="100%"/>
  </g>
 </g>
 <g>
  <title>Layer 1</title>
  <ellipse ry="41.5" rx="72.5" id="svg_2" cy="145.953125" cx="328" stroke-width="1.5" stroke="#000" fill="#fff"/>
  <path id="svg_3" d="m283.5,140.453125c48,1 82,-13 54,5c-28,18 -70,-16 -36,-6c34,10 56,17 30,26c-26,9 -62,11 -47,-8c15,-19 50,-49 45,-12c-5,37 -8,53 -17,41c-9,-12 -46,-28 -21,-42c25,-14 73,-51 46,-8" opacity="0.5" stroke-width="1.5" stroke="#000" fill="#fff"/>
  <rect id="svg_4" height="135" width="204" y="78.453125" x="229.5" stroke-width="1.5" stroke="#000" fill="#153723"/>
  <text stroke="#000" transform="matrix(1.7633472681045532,0,0,2.8796371743561906,-309.9428454525769,-225.56994978125542) " xml:space="preserve" text-anchor="start" font-family="Helvetica, Arial, sans-serif" font-size="24" id="svg_6" y="136.453125" x="323.5" stroke-width="1.5" fill="#fff">Вперед</text>
 </g>
</svg>